<svg width="300" height="306" viewBox="0 0 300 306" fill="none" xmlns="http://www.w3.org/2000/svg">
<rect width="300" height="306" fill="#D1312C"/>
<g opacity="0.5" clip-path="url(#clip0_10_84)">
<path d="M290 37.25C290 66.1069 266.607 89.5 237.75 89.5C208.893 89.5 185.5 66.1069 185.5 37.25C185.5 8.39312 208.893 -15 237.75 -15C266.607 -15 290 8.39312 290 37.25ZM200.776 37.25C200.776 57.6699 217.33 74.2236 237.75 74.2236C258.17 74.2236 274.724 57.6699 274.724 37.25C274.724 16.8301 258.17 0.276447 237.75 0.276447C217.33 0.276447 200.776 16.8301 200.776 37.25Z" fill="#E0783A"/>
<path d="M59 71C59 91.9868 41.9868 109 21 109C0.0131795 109 -17 91.9868 -17 71C-17 50.0132 0.0131795 33 21 33C41.9868 33 59 50.0132 59 71ZM-5.88986 71C-5.88986 85.8509 6.14914 97.8899 21 97.8899C35.8509 97.8899 47.8899 85.8509 47.8899 71C47.8899 56.1491 35.8509 44.1101 21 44.1101C6.14914 44.1101 -5.88986 56.1491 -5.88986 71Z" fill="#E4883E"/>
<path d="M203 221C203 241.987 185.987 259 165 259C144.013 259 127 241.987 127 221C127 200.013 144.013 183 165 183C185.987 183 203 200.013 203 221ZM138.11 221C138.11 235.851 150.149 247.89 165 247.89C179.851 247.89 191.89 235.851 191.89 221C191.89 206.149 179.851 194.11 165 194.11C150.149 194.11 138.11 206.149 138.11 221Z" fill="#E4883E"/>
<path d="M174.5 118.25C174.5 147.107 151.107 170.5 122.25 170.5C93.3931 170.5 70 147.107 70 118.25C70 89.3931 93.3931 66 122.25 66C151.107 66 174.5 89.3931 174.5 118.25ZM85.2764 118.25C85.2764 138.67 101.83 155.224 122.25 155.224C142.67 155.224 159.224 138.67 159.224 118.25C159.224 97.8301 142.67 81.2764 122.25 81.2764C101.83 81.2764 85.2764 97.8301 85.2764 118.25Z" fill="#E4883E"/>
<path d="M80.5 214.25C80.5 243.107 57.1069 266.5 28.25 266.5C-0.606878 266.5 -24 243.107 -24 214.25C-24 185.393 -0.606878 162 28.25 162C57.1069 162 80.5 185.393 80.5 214.25ZM-8.72355 214.25C-8.72355 234.67 7.83007 251.224 28.25 251.224C48.6699 251.224 65.2236 234.67 65.2236 214.25C65.2236 193.83 48.6699 177.276 28.25 177.276C7.83007 177.276 -8.72355 193.83 -8.72355 214.25Z" fill="#E4883E"/>
<path d="M346 177.5C346 215.332 315.332 246 277.5 246C239.668 246 209 215.332 209 177.5C209 139.668 239.668 109 277.5 109C315.332 109 346 139.668 346 177.5ZM229.027 177.5C229.027 204.271 250.729 225.973 277.5 225.973C304.271 225.973 325.973 204.271 325.973 177.5C325.973 150.729 304.271 129.027 277.5 129.027C250.729 129.027 229.027 150.729 229.027 177.5Z" fill="#E4883E"/>
<path d="M196 339.5C196 377.332 165.332 408 127.5 408C89.6685 408 59 377.332 59 339.5C59 301.668 89.6685 271 127.5 271C165.332 271 196 301.668 196 339.5ZM79.0275 339.5C79.0275 366.271 100.729 387.973 127.5 387.973C154.271 387.973 175.973 366.271 175.973 339.5C175.973 312.729 154.271 291.027 127.5 291.027C100.729 291.027 79.0275 312.729 79.0275 339.5Z" fill="#E4883E"/>
<path d="M171.5 -14.75C171.5 14.1069 148.107 37.5 119.25 37.5C90.3931 37.5 67 14.1069 67 -14.75C67 -43.6069 90.3931 -67 119.25 -67C148.107 -67 171.5 -43.6069 171.5 -14.75ZM82.2764 -14.75C82.2764 5.66993 98.8301 22.2236 119.25 22.2236C139.67 22.2236 156.224 5.66993 156.224 -14.75C156.224 -35.1699 139.67 -51.7236 119.25 -51.7236C98.8301 -51.7236 82.2764 -35.1699 82.2764 -14.75Z" fill="#E3873D"/>
</g>
<defs>
<clipPath id="clip0_10_84">
<rect width="300" height="306" fill="white"/>
</clipPath>
</defs>
</svg>
